<svg version="1.2" xmlns="http://www.w3.org/2000/svg" viewBox="0 0 1200 1200" width="48" height="48"><path fill-rule="evenodd" class="a" d="m404.4 857.5c0 28.2-23 51.2-51.2 51.2h-214c-28.2 0-51.2-23-51.2-51.2v-688.1c0-28.2 23-51.2 51.2-51.2h784.4c28.1 0 51.2 23 51.2 51.2v266.8c0 28.1-23.1 51.2-51.2 51.2-28.2 0-51.2-23.1-51.2-51.2v-25.6h-682.5v395.7h162.8c28.2 0 51.2 23.1 51.7 51.2zm-214.5-548.3h682.5v-88.6h-682.5z"/><path fill-rule="evenodd" class="a" d="m1112 571.8v458.8c0 28.2-23 51.2-51.2 51.2h-570.4c-28.1 0-51.2-23-51.2-51.2v-458.2c0-28.2 23.1-51.2 51.2-51.2h570.4c28.2 0 51.2 22.5 51.2 50.6zm-101.9 234.5h-468.5v173.1h468.5zm0-183.3h-468.5v81.4h468.5z"/></svg>