<svg version="1.2" xmlns="http://www.w3.org/2000/svg" viewBox="0 0 1200 1200" width="48" height="48"><path id="Layer" fill-rule="evenodd" class="s0" d="m1116.9 109.4c1.8 4.3 2.7 8.8 2.6 13.4 0 4.6-0.9 9.1-2.7 13.4-1.8 4.2-4.4 8-7.7 11.2l-63 62.1q0.6 2.2 1 4.4 0.5 2.2 0.8 4.4 0.3 2.2 0.5 4.5 0.2 2.2 0.2 4.5l5.8 349.9c0 4.5-0.4 9.1-1.3 13.6-0.9 4.5-2.2 8.8-4 13.1-1.7 4.2-3.9 8.2-6.4 12-2.6 3.8-5.5 7.3-8.7 10.5l-475.5 465.1c-6.6 6.5-14.4 11.6-23 15.2-8.6 3.5-17.8 5.3-27 5.3-9.3 0-18.5-1.8-27.1-5.3-8.5-3.6-16.3-8.7-22.9-15.2l-357.9-352.3c-6.5-6.4-11.7-14.1-15.3-22.5-3.5-8.5-5.4-17.6-5.4-26.8 0-9.1 1.9-18.2 5.4-26.7 3.6-8.4 8.8-16.1 15.3-22.5l471.8-465.5c3.4-3.3 7-6.2 10.9-8.7 3.9-2.6 8.1-4.8 12.4-6.5 4.3-1.8 8.8-3.1 13.4-4 4.6-0.9 9.2-1.3 13.9-1.4l355.1 3.1q2.3 0 4.6 0.2 2.3 0.1 4.5 0.4 2.3 0.4 4.5 0.8 2.3 0.5 4.5 1.2l63-62.1c3.3-3.3 7.3-5.8 11.5-7.6 4.3-1.7 8.9-2.6 13.5-2.6 4.7 0 9.2 0.9 13.5 2.6 4.3 1.8 8.2 4.3 11.5 7.6 3.3 3.2 5.9 7 7.7 11.2zm-132.7 165l-110.6 108.3c24.7 47 14.9 104.7-23.9 140.9-38.8 36.2-97.1 41.9-142.2 13.9-45.1-27.9-65.9-82.7-50.8-133.5 15.2-50.9 62.5-85.3 115.6-84.1q6.9 0.1 13.7 1 6.8 0.8 13.5 2.5 6.6 1.8 13 4.3 6.4 2.5 12.5 5.8l109.1-108.4h-311.1l-472.4 464.8 357.8 352.3 475.8-465zm-169.4 143.8c-2.3-5.6-5.6-10.7-9.9-15-4.3-4.3-9.3-7.8-14.9-10.1-5.6-2.4-11.6-3.6-17.7-3.6-18.5 0-35.3 11.1-42.4 28.2-7.2 17.1-3.3 36.8 9.7 50 13 13.2 32.7 17.3 49.9 10.3 17.2-6.9 28.5-23.5 28.7-42.1 0.1-6-1.1-12.1-3.4-17.7z"/></svg>