<?xml version="1.0" standalone="no"?><!DOCTYPE svg PUBLIC "-//W3C//DTD SVG 1.1//EN" "http://www.w3.org/Graphics/SVG/1.1/DTD/svg11.dtd"><svg t="1656127420442" class="icon" viewBox="0 0 1024 1024" version="1.1" xmlns="http://www.w3.org/2000/svg" p-id="26036" width="48" height="48" xmlns:xlink="http://www.w3.org/1999/xlink"><defs><style type="text/css"></style></defs><path d="M290.773333 645.461333l200.704 115.84V529.493333L290.688 413.696v231.808zM204.373333 695.296l287.146667 165.674667V1024L63.146667 776.832V282.325333l141.226666 81.493334v331.52zM512 262.229333L311.338667 378.197333 512 494.08l200.746667-115.925333L512 262.272z m0-99.541333l241.493333 139.733333 141.226667-81.493333L512 0 84.181333 247.04 225.28 328.405333 512 162.688z m307.541333 532.608v-168.448l-86.314666 49.792v68.864l-200.704 115.84v0.213333-231.936L960.853333 282.453333v494.421334l-428.373333 247.253333v-162.858667l287.061333-165.888z" p-id="26037" fill="#8a8a8a"></path></svg>