<?xml version="1.0" standalone="no"?><!DOCTYPE svg PUBLIC "-//W3C//DTD SVG 1.1//EN" "http://www.w3.org/Graphics/SVG/1.1/DTD/svg11.dtd"><svg t="1656902443268" class="icon" viewBox="0 0 1024 1024" version="1.1" xmlns="http://www.w3.org/2000/svg" p-id="3266" xmlns:xlink="http://www.w3.org/1999/xlink" width="48" height="48"><defs><style type="text/css"></style></defs><path d="M513.1 640c-11 0-20 9-20 20v151.8c0 11 9 20 20 20s20-9 20-20V660c0-11.1-9-20-20-20zM812 492.8H660.3c-11 0-20 9-20 20s9 20 20 20H812c11 0 20-9 20-20s-8.9-20-20-20z" fill="#FF4D51" p-id="3267"></path><path d="M514.1 640c-11 0-20 9-20 20v151.8c0 11 9 20 20 20s20-9 20-20V660c0-11.1-9-20-20-20zM813 492.8H661.2c-11 0-20 9-20 20s9 20 20 20H813c11 0 20-9 20-20s-9-20-20-20zM512.1 192.2c-11 0-20 9-20 20V364c0 11 9 20 20 20s20-9 20-20V212.2c0-11-9-20-20-20zM364.8 492.1H213c-11 0-20 9-20 20s9 20 20 20h151.8c11 0 20-9 20-20s-9-20-20-20zM617.7 596.4c-5.1 0-10.2 2-14.1 5.9-7.8 7.8-7.8 20.5 0 28.3l107.3 107.3c3.9 3.9 9 5.9 14.1 5.9s10.2-2 14.1-5.9c7.8-7.8 7.8-20.5 0-28.3L631.8 602.2c-3.9-3.9-9-5.8-14.1-5.8zM725 281c-5.1 0-10.2 2-14.1 5.9L603.6 394.2c-7.8 7.8-7.8 20.5 0 28.3 3.9 3.9 9 5.9 14.1 5.9s10.2-2 14.1-5.9l107.3-107.3c7.8-7.8 7.8-20.5 0-28.3-3.8-4-9-5.9-14.1-5.9zM299.7 281.2c-5.1 0-10.2 2-14.1 5.9-7.8 7.8-7.8 20.5 0 28.3l107.3 107.3c3.9 3.9 9 5.9 14.1 5.9s10.2-2 14.1-5.9c7.8-7.8 7.8-20.5 0-28.3L313.8 287.1c-3.9-3.9-9-5.9-14.1-5.9zM407.6 597.4c-5.1 0-10.2 2-14.1 5.9L286.1 710.6c-7.8 7.8-7.8 20.5 0 28.3 3.9 3.9 9 5.9 14.1 5.9s10.2-2 14.1-5.9l107.3-107.3c7.8-7.8 7.8-20.5 0-28.3-3.8-3.9-8.9-5.9-14-5.9z" fill="#FF4D51" p-id="3268"></path><path d="M833 104c47.8 0 86.8 38.9 86.8 86.8v642c0 47.8-38.9 86.8-86.8 86.8H191c-47.8 0-86.8-38.9-86.8-86.8v-642c0-47.8 38.9-86.8 86.8-86.8h642m0-40H191c-70 0-126.8 56.8-126.8 126.8v642c0 70 56.8 126.8 126.8 126.8h642c70 0 126.8-56.8 126.8-126.8v-642C959.8 120.8 903 64 833 64z" fill="#206BFF" p-id="3269"></path></svg>