<?xml version="1.0" standalone="no"?><!DOCTYPE svg PUBLIC "-//W3C//DTD SVG 1.1//EN" "http://www.w3.org/Graphics/SVG/1.1/DTD/svg11.dtd"><svg t="1656129923742" class="icon" viewBox="0 0 1024 1024" version="1.1" xmlns="http://www.w3.org/2000/svg" p-id="100029" xmlns:xlink="http://www.w3.org/1999/xlink" width="48" height="48"><defs><style type="text/css"></style></defs><path d="M469.312 128a42.688 42.688 0 0 0-42.624 42.688V256c0 23.552 19.072 42.688 42.624 42.688h85.376A42.688 42.688 0 0 0 597.312 256V170.688A42.688 42.688 0 0 0 554.688 128H469.312z m0 298.688a42.688 42.688 0 0 0-42.624 42.624v85.376c0 23.552 19.072 42.624 42.624 42.624h85.376a42.688 42.688 0 0 0 42.624-42.624V469.312a42.688 42.688 0 0 0-42.624-42.624H469.312z m0 298.624a42.688 42.688 0 0 0-42.624 42.688v85.312c0 23.552 19.072 42.688 42.624 42.688h85.376a42.688 42.688 0 0 0 42.624-42.688V768a42.688 42.688 0 0 0-42.624-42.688H469.312z" p-id="100030" fill="#FFFFFF"></path></svg>