<?xml version="1.0" standalone="no"?><!DOCTYPE svg PUBLIC "-//W3C//DTD SVG 1.1//EN" "http://www.w3.org/Graphics/SVG/1.1/DTD/svg11.dtd"><svg t="1656560410055" class="icon" viewBox="0 0 1024 1024" version="1.1" xmlns="http://www.w3.org/2000/svg" p-id="1536" xmlns:xlink="http://www.w3.org/1999/xlink" width="48" height="48"><defs><style type="text/css"></style></defs><path d="M710.93248 615.656107l-23.739733 106.796373h73.898666l-27.255466-106.796373z" fill="#7C4DFF" p-id="1537"></path><path d="M606.04416 101.205333a42.9056 42.9056 0 0 1 0 4.427094 94.201173 94.201173 0 0 1-94.201173 94.204586A94.12608 94.12608 0 0 1 417.792 105.632427a42.9056 42.9056 0 0 1 0-4.427094H101.21216v821.562027h821.562027V101.205333z m-112.75264 733.620907l-40.07936-197.94944h-0.68608l-43.209387 197.94944H354.2016l-62.446933-290.853547h54.429013l37.256533 198.024534h0.682667l44.89216-198.024534h50.916693l40.308054 200.465067h0.761173l42.4448-200.465067h53.439147l-69.393067 290.850134z m299.707733 0l-18.551466-64.73728h-97.942187l-14.27456 64.73728h-54.432427l70.382934-290.853547h85.88288l85.579093 290.850134z" fill="#7C4DFF" p-id="1538"></path></svg>